<mxfile host="app.diagrams.net" modified="2023-11-29T22:45:29.100Z" agent="Mozilla/5.0 (Windows NT 10.0; Win64; x64; rv:109.0) Gecko/20100101 Firefox/116.0" etag="GxjbYrd09P1LV35q6EW7" version="22.1.4" type="device">
  <diagram name="ページ1" id="MHDTK5d9CElYlcoVkFjM">
    <mxGraphModel dx="2347" dy="1347" grid="1" gridSize="10" guides="1" tooltips="1" connect="1" arrows="1" fold="1" page="1" pageScale="1" pageWidth="827" pageHeight="1169" math="0" shadow="0">
      <root>
        <mxCell id="0" />
        <mxCell id="1" parent="0" />
        <mxCell id="UPV8nuoFZoHK5YnzN6FV-69" value="&lt;div&gt;&lt;b&gt;RAM&lt;br&gt;&lt;/b&gt;&lt;/div&gt;&lt;div&gt;&lt;b&gt;&lt;br&gt;&lt;/b&gt;&lt;/div&gt;&lt;div&gt;&lt;b&gt;&lt;br&gt;&lt;/b&gt;&lt;/div&gt;&lt;div&gt;&lt;b&gt;&lt;br&gt;&lt;/b&gt;&lt;/div&gt;&lt;div&gt;&lt;b&gt;&lt;br&gt;&lt;/b&gt;&lt;/div&gt;&lt;div&gt;&lt;b&gt;&lt;br&gt;&lt;/b&gt;&lt;/div&gt;&lt;div&gt;&lt;b&gt;&lt;br&gt;&lt;/b&gt;&lt;/div&gt;" style="rounded=0;whiteSpace=wrap;html=1;fillColor=#f8cecc;strokeColor=#b85450;fontSize=20;align=right;" parent="1" vertex="1">
          <mxGeometry x="40" y="20" width="380" height="170" as="geometry" />
        </mxCell>
        <mxCell id="UPV8nuoFZoHK5YnzN6FV-68" value="&lt;div&gt;&lt;b&gt;Core&lt;br&gt;&lt;/b&gt;&lt;/div&gt;&lt;div&gt;&lt;b&gt;&lt;br&gt;&lt;/b&gt;&lt;/div&gt;&lt;div&gt;&lt;b&gt;&lt;br&gt;&lt;/b&gt;&lt;/div&gt;&lt;div&gt;&lt;b&gt;&lt;br&gt;&lt;/b&gt;&lt;/div&gt;&lt;div&gt;&lt;b&gt;&lt;br&gt;&lt;/b&gt;&lt;/div&gt;&lt;div&gt;&lt;b&gt;&lt;br&gt;&lt;/b&gt;&lt;/div&gt;&lt;div&gt;&lt;b&gt;&lt;br&gt;&lt;/b&gt;&lt;/div&gt;&lt;div&gt;&lt;b&gt;&lt;br&gt;&lt;/b&gt;&lt;/div&gt;&lt;div&gt;&lt;b&gt;&lt;br&gt;&lt;/b&gt;&lt;/div&gt;" style="rounded=0;whiteSpace=wrap;html=1;fillColor=#ffe6cc;strokeColor=#d79b00;fontSize=20;align=right;" parent="1" vertex="1">
          <mxGeometry x="40" y="600" width="1040" height="220" as="geometry" />
        </mxCell>
        <mxCell id="UPV8nuoFZoHK5YnzN6FV-66" value="&lt;div&gt;&lt;b&gt;Data Unit&lt;br&gt;&lt;/b&gt;&lt;/div&gt;&lt;div&gt;&lt;b&gt;&lt;br&gt;&lt;/b&gt;&lt;/div&gt;&lt;div&gt;&lt;b&gt;&lt;br&gt;&lt;/b&gt;&lt;/div&gt;&lt;div&gt;&lt;b&gt;&lt;br&gt;&lt;/b&gt;&lt;/div&gt;&lt;div&gt;&lt;b&gt;&lt;br&gt;&lt;/b&gt;&lt;/div&gt;&lt;div&gt;&lt;b&gt;&lt;br&gt;&lt;/b&gt;&lt;/div&gt;&lt;div&gt;&lt;b&gt;&lt;br&gt;&lt;/b&gt;&lt;/div&gt;&lt;div&gt;&lt;b&gt;&lt;br&gt;&lt;/b&gt;&lt;/div&gt;&lt;div&gt;&lt;b&gt;&lt;br&gt;&lt;/b&gt;&lt;/div&gt;&lt;div&gt;&lt;b&gt;&lt;br&gt;&lt;/b&gt;&lt;/div&gt;&lt;div&gt;&lt;b&gt;&lt;br&gt;&lt;/b&gt;&lt;/div&gt;&lt;div&gt;&lt;b&gt;&lt;br&gt;&lt;/b&gt;&lt;/div&gt;&lt;div&gt;&lt;b&gt;&lt;br&gt;&lt;/b&gt;&lt;/div&gt;&lt;div&gt;&lt;b&gt;&lt;br&gt;&lt;/b&gt;&lt;/div&gt;&lt;div&gt;&lt;b&gt;&lt;br&gt;&lt;/b&gt;&lt;/div&gt;&lt;div&gt;&lt;b&gt;&lt;br&gt;&lt;/b&gt;&lt;/div&gt;&lt;div&gt;&lt;b&gt;&lt;br&gt;&lt;/b&gt;&lt;/div&gt;&lt;div&gt;&lt;b&gt;&lt;br&gt;&lt;/b&gt;&lt;/div&gt;&lt;div&gt;&lt;b&gt;&lt;br&gt;&lt;/b&gt;&lt;/div&gt;&lt;div&gt;&lt;b&gt;&lt;br&gt;&lt;/b&gt;&lt;/div&gt;&lt;div&gt;&lt;b&gt;&lt;br&gt;&lt;/b&gt;&lt;/div&gt;" style="rounded=0;whiteSpace=wrap;html=1;fillColor=#dae8fc;strokeColor=#6c8ebf;fontSize=20;align=right;" parent="1" vertex="1">
          <mxGeometry x="520" y="20" width="420" height="520" as="geometry" />
        </mxCell>
        <mxCell id="UPV8nuoFZoHK5YnzN6FV-65" value="&lt;div&gt;&lt;b&gt;Instruction Fetch&lt;br&gt;&lt;/b&gt;&lt;/div&gt;&lt;div&gt;&lt;b&gt;&lt;br&gt;&lt;/b&gt;&lt;/div&gt;&lt;div&gt;&lt;b&gt;&lt;br&gt;&lt;/b&gt;&lt;/div&gt;&lt;div&gt;&lt;b&gt;&lt;br&gt;&lt;/b&gt;&lt;/div&gt;&lt;div&gt;&lt;b&gt;&lt;br&gt;&lt;/b&gt;&lt;/div&gt;&lt;div&gt;&lt;b&gt;&lt;br&gt;&lt;/b&gt;&lt;/div&gt;&lt;div&gt;&lt;b&gt;&lt;br&gt;&lt;/b&gt;&lt;/div&gt;&lt;div&gt;&lt;b&gt;&lt;br&gt;&lt;/b&gt;&lt;/div&gt;&lt;div&gt;&lt;b&gt;&lt;br&gt;&lt;/b&gt;&lt;/div&gt;&lt;div&gt;&lt;b&gt;&lt;br&gt;&lt;/b&gt;&lt;/div&gt;&lt;div&gt;&lt;b&gt;&lt;br&gt;&lt;/b&gt;&lt;/div&gt;&lt;div&gt;&lt;b&gt;&lt;br&gt;&lt;/b&gt;&lt;/div&gt;&lt;div&gt;&lt;b&gt;&lt;br&gt;&lt;/b&gt;&lt;/div&gt;" style="rounded=0;whiteSpace=wrap;html=1;fillColor=#d5e8d4;strokeColor=#82b366;fontSize=20;align=right;" parent="1" vertex="1">
          <mxGeometry x="40" y="220" width="380" height="320" as="geometry" />
        </mxCell>
        <mxCell id="UPV8nuoFZoHK5YnzN6FV-1" value="RAM" style="rounded=0;whiteSpace=wrap;html=1;" parent="1" vertex="1">
          <mxGeometry x="110" y="40" width="240" height="60" as="geometry" />
        </mxCell>
        <mxCell id="UPV8nuoFZoHK5YnzN6FV-22" style="edgeStyle=orthogonalEdgeStyle;rounded=0;orthogonalLoop=1;jettySize=auto;html=1;entryX=0.5;entryY=0;entryDx=0;entryDy=0;startArrow=classic;startFill=1;" parent="1" source="UPV8nuoFZoHK5YnzN6FV-2" target="UPV8nuoFZoHK5YnzN6FV-11" edge="1">
          <mxGeometry relative="1" as="geometry" />
        </mxCell>
        <mxCell id="stZ-vPFSp5Zs5-Oamw_T-21" style="edgeStyle=orthogonalEdgeStyle;rounded=0;orthogonalLoop=1;jettySize=auto;html=1;entryX=0.25;entryY=1;entryDx=0;entryDy=0;" edge="1" parent="1" source="UPV8nuoFZoHK5YnzN6FV-2" target="UPV8nuoFZoHK5YnzN6FV-1">
          <mxGeometry relative="1" as="geometry" />
        </mxCell>
        <mxCell id="UPV8nuoFZoHK5YnzN6FV-2" value="Arbiter" style="rounded=0;whiteSpace=wrap;html=1;" parent="1" vertex="1">
          <mxGeometry x="110" y="130" width="120" height="40" as="geometry" />
        </mxCell>
        <mxCell id="UPV8nuoFZoHK5YnzN6FV-25" style="edgeStyle=orthogonalEdgeStyle;rounded=0;orthogonalLoop=1;jettySize=auto;html=1;entryX=0;entryY=0.5;entryDx=0;entryDy=0;exitX=1;exitY=0.5;exitDx=0;exitDy=0;startArrow=classic;startFill=1;" parent="1" source="UPV8nuoFZoHK5YnzN6FV-3" target="UPV8nuoFZoHK5YnzN6FV-10" edge="1">
          <mxGeometry relative="1" as="geometry">
            <Array as="points">
              <mxPoint x="440" y="385" />
              <mxPoint x="440" y="140" />
            </Array>
          </mxGeometry>
        </mxCell>
        <mxCell id="UPV8nuoFZoHK5YnzN6FV-79" value="Fetch PTE" style="edgeLabel;html=1;align=center;verticalAlign=middle;resizable=0;points=[];" parent="UPV8nuoFZoHK5YnzN6FV-25" vertex="1" connectable="0">
          <mxGeometry x="-0.6302" y="1" relative="1" as="geometry">
            <mxPoint x="-2" y="1" as="offset" />
          </mxGeometry>
        </mxCell>
        <mxCell id="UPV8nuoFZoHK5YnzN6FV-3" value="&lt;div&gt;PageTableWalker&lt;/div&gt;&lt;div&gt;(Sv32)&lt;/div&gt;" style="rounded=0;whiteSpace=wrap;html=1;" parent="1" vertex="1">
          <mxGeometry x="110" y="355" width="120" height="60" as="geometry" />
        </mxCell>
        <mxCell id="UPV8nuoFZoHK5YnzN6FV-28" style="edgeStyle=orthogonalEdgeStyle;rounded=0;orthogonalLoop=1;jettySize=auto;html=1;entryX=1;entryY=0.5;entryDx=0;entryDy=0;startArrow=classic;startFill=1;exitX=0.995;exitY=0.314;exitDx=0;exitDy=0;exitPerimeter=0;" parent="1" source="UPV8nuoFZoHK5YnzN6FV-4" target="UPV8nuoFZoHK5YnzN6FV-10" edge="1">
          <mxGeometry relative="1" as="geometry">
            <mxPoint x="980" y="100" as="targetPoint" />
            <Array as="points">
              <mxPoint x="760" y="359" />
              <mxPoint x="760" y="140" />
            </Array>
          </mxGeometry>
        </mxCell>
        <mxCell id="UPV8nuoFZoHK5YnzN6FV-78" value="Fetch PTE" style="edgeLabel;html=1;align=center;verticalAlign=middle;resizable=0;points=[];" parent="UPV8nuoFZoHK5YnzN6FV-28" vertex="1" connectable="0">
          <mxGeometry x="-0.6493" relative="1" as="geometry">
            <mxPoint as="offset" />
          </mxGeometry>
        </mxCell>
        <mxCell id="UPV8nuoFZoHK5YnzN6FV-29" style="edgeStyle=orthogonalEdgeStyle;rounded=0;orthogonalLoop=1;jettySize=auto;html=1;exitX=0.5;exitY=0;exitDx=0;exitDy=0;entryX=0.5;entryY=1;entryDx=0;entryDy=0;startArrow=classic;startFill=1;" parent="1" source="UPV8nuoFZoHK5YnzN6FV-4" target="UPV8nuoFZoHK5YnzN6FV-8" edge="1">
          <mxGeometry relative="1" as="geometry" />
        </mxCell>
        <mxCell id="UPV8nuoFZoHK5YnzN6FV-4" value="&lt;div&gt;PageTableWalker&lt;/div&gt;&lt;div&gt;(Sv32)&lt;/div&gt;" style="rounded=0;whiteSpace=wrap;html=1;" parent="1" vertex="1">
          <mxGeometry x="590" y="340" width="120" height="60" as="geometry" />
        </mxCell>
        <mxCell id="UPV8nuoFZoHK5YnzN6FV-30" style="edgeStyle=orthogonalEdgeStyle;rounded=0;orthogonalLoop=1;jettySize=auto;html=1;entryX=0.5;entryY=1;entryDx=0;entryDy=0;startArrow=classic;startFill=1;" parent="1" source="UPV8nuoFZoHK5YnzN6FV-6" target="UPV8nuoFZoHK5YnzN6FV-3" edge="1">
          <mxGeometry relative="1" as="geometry" />
        </mxCell>
        <mxCell id="UPV8nuoFZoHK5YnzN6FV-31" style="edgeStyle=orthogonalEdgeStyle;rounded=0;orthogonalLoop=1;jettySize=auto;html=1;exitX=1;exitY=0.5;exitDx=0;exitDy=0;entryX=0;entryY=0.5;entryDx=0;entryDy=0;startArrow=classic;startFill=1;" parent="1" source="UPV8nuoFZoHK5YnzN6FV-6" target="UPV8nuoFZoHK5YnzN6FV-7" edge="1">
          <mxGeometry relative="1" as="geometry" />
        </mxCell>
        <mxCell id="UPV8nuoFZoHK5YnzN6FV-6" value="&lt;div&gt;Inst Queue (IF)&lt;/div&gt;&lt;div&gt;32 entry&lt;br&gt;&lt;/div&gt;" style="rounded=0;whiteSpace=wrap;html=1;" parent="1" vertex="1">
          <mxGeometry x="110" y="460" width="120" height="60" as="geometry" />
        </mxCell>
        <mxCell id="UPV8nuoFZoHK5YnzN6FV-7" value="&lt;div&gt;BTB&lt;/div&gt;&lt;div&gt;(Local History / GlobalHistory)&lt;/div&gt;" style="rounded=0;whiteSpace=wrap;html=1;" parent="1" vertex="1">
          <mxGeometry x="270" y="460" width="120" height="60" as="geometry" />
        </mxCell>
        <mxCell id="UPV8nuoFZoHK5YnzN6FV-27" style="edgeStyle=orthogonalEdgeStyle;rounded=0;orthogonalLoop=1;jettySize=auto;html=1;exitX=0.5;exitY=0;exitDx=0;exitDy=0;entryX=0.5;entryY=1;entryDx=0;entryDy=0;startArrow=classic;startFill=1;" parent="1" source="UPV8nuoFZoHK5YnzN6FV-8" target="UPV8nuoFZoHK5YnzN6FV-10" edge="1">
          <mxGeometry relative="1" as="geometry" />
        </mxCell>
        <mxCell id="UPV8nuoFZoHK5YnzN6FV-8" value="MMIO Controller" style="rounded=0;whiteSpace=wrap;html=1;" parent="1" vertex="1">
          <mxGeometry x="590" y="190" width="120" height="120" as="geometry" />
        </mxCell>
        <mxCell id="UPV8nuoFZoHK5YnzN6FV-23" style="edgeStyle=orthogonalEdgeStyle;rounded=0;orthogonalLoop=1;jettySize=auto;html=1;entryX=1;entryY=0.5;entryDx=0;entryDy=0;exitX=0;exitY=0.5;exitDx=0;exitDy=0;startArrow=classic;startFill=1;" parent="1" source="UPV8nuoFZoHK5YnzN6FV-9" target="UPV8nuoFZoHK5YnzN6FV-2" edge="1">
          <mxGeometry relative="1" as="geometry">
            <Array as="points">
              <mxPoint x="370" y="60" />
              <mxPoint x="370" y="150" />
            </Array>
          </mxGeometry>
        </mxCell>
        <mxCell id="UPV8nuoFZoHK5YnzN6FV-9" value="&lt;div&gt;L1 Data Cache&lt;br&gt;&lt;/div&gt;&lt;div&gt;8-way&lt;/div&gt;&lt;div&gt;64*64B(32KiB)&lt;br&gt;&lt;/div&gt;" style="rounded=0;whiteSpace=wrap;html=1;" parent="1" vertex="1">
          <mxGeometry x="590" y="30" width="120" height="60" as="geometry" />
        </mxCell>
        <mxCell id="UPV8nuoFZoHK5YnzN6FV-26" style="edgeStyle=orthogonalEdgeStyle;rounded=0;orthogonalLoop=1;jettySize=auto;html=1;entryX=0.5;entryY=1;entryDx=0;entryDy=0;startArrow=classic;startFill=1;" parent="1" source="UPV8nuoFZoHK5YnzN6FV-10" target="UPV8nuoFZoHK5YnzN6FV-9" edge="1">
          <mxGeometry relative="1" as="geometry" />
        </mxCell>
        <mxCell id="stZ-vPFSp5Zs5-Oamw_T-2" value="8B/cycle" style="edgeLabel;html=1;align=center;verticalAlign=middle;resizable=0;points=[];" vertex="1" connectable="0" parent="UPV8nuoFZoHK5YnzN6FV-26">
          <mxGeometry x="0.0057" relative="1" as="geometry">
            <mxPoint as="offset" />
          </mxGeometry>
        </mxCell>
        <mxCell id="UPV8nuoFZoHK5YnzN6FV-10" value="Arbiter" style="rounded=0;whiteSpace=wrap;html=1;" parent="1" vertex="1">
          <mxGeometry x="590" y="120" width="120" height="40" as="geometry" />
        </mxCell>
        <mxCell id="UPV8nuoFZoHK5YnzN6FV-24" value="&lt;div&gt;8B/cycle &lt;/div&gt;" style="edgeStyle=orthogonalEdgeStyle;rounded=0;orthogonalLoop=1;jettySize=auto;html=1;entryX=0.5;entryY=0;entryDx=0;entryDy=0;startArrow=classic;startFill=1;" parent="1" source="UPV8nuoFZoHK5YnzN6FV-11" target="UPV8nuoFZoHK5YnzN6FV-3" edge="1">
          <mxGeometry relative="1" as="geometry" />
        </mxCell>
        <mxCell id="UPV8nuoFZoHK5YnzN6FV-11" value="&lt;div&gt;L1 Instruction Cache&lt;/div&gt;&lt;div&gt;8-way&lt;/div&gt;&lt;div&gt;64*64B(32KiB)&lt;br&gt;&lt;/div&gt;" style="rounded=0;whiteSpace=wrap;html=1;" parent="1" vertex="1">
          <mxGeometry x="110" y="250" width="120" height="60" as="geometry" />
        </mxCell>
        <mxCell id="UPV8nuoFZoHK5YnzN6FV-12" value="&lt;div&gt;External Disk&lt;/div&gt;" style="rounded=0;whiteSpace=wrap;html=1;" parent="1" vertex="1">
          <mxGeometry x="970" y="190" width="100" height="30" as="geometry" />
        </mxCell>
        <mxCell id="UPV8nuoFZoHK5YnzN6FV-13" value="CLINT" style="rounded=0;whiteSpace=wrap;html=1;" parent="1" vertex="1">
          <mxGeometry x="810" y="250" width="100" height="30" as="geometry" />
        </mxCell>
        <mxCell id="stZ-vPFSp5Zs5-Oamw_T-13" style="edgeStyle=orthogonalEdgeStyle;rounded=0;orthogonalLoop=1;jettySize=auto;html=1;entryX=0;entryY=0.5;entryDx=0;entryDy=0;" edge="1" parent="1" source="UPV8nuoFZoHK5YnzN6FV-14" target="stZ-vPFSp5Zs5-Oamw_T-5">
          <mxGeometry relative="1" as="geometry" />
        </mxCell>
        <mxCell id="UPV8nuoFZoHK5YnzN6FV-14" value="Queue (1024B)" style="rounded=0;whiteSpace=wrap;html=1;" parent="1" vertex="1">
          <mxGeometry x="810" y="220" width="60" height="30" as="geometry" />
        </mxCell>
        <mxCell id="stZ-vPFSp5Zs5-Oamw_T-16" value="SEIP" style="edgeStyle=orthogonalEdgeStyle;rounded=0;orthogonalLoop=1;jettySize=auto;html=1;entryX=0.75;entryY=0;entryDx=0;entryDy=0;" edge="1" parent="1" source="UPV8nuoFZoHK5YnzN6FV-15" target="UPV8nuoFZoHK5YnzN6FV-39">
          <mxGeometry x="-0.3143" relative="1" as="geometry">
            <Array as="points">
              <mxPoint x="840" y="430" />
              <mxPoint x="840" y="430" />
            </Array>
            <mxPoint as="offset" />
          </mxGeometry>
        </mxCell>
        <mxCell id="UPV8nuoFZoHK5YnzN6FV-15" value="Queue (1024B)" style="rounded=0;whiteSpace=wrap;html=1;" parent="1" vertex="1">
          <mxGeometry x="810" y="280" width="60" height="30" as="geometry" />
        </mxCell>
        <mxCell id="UPV8nuoFZoHK5YnzN6FV-17" style="edgeStyle=orthogonalEdgeStyle;rounded=0;orthogonalLoop=1;jettySize=auto;html=1;exitX=0;exitY=0.5;exitDx=0;exitDy=0;entryX=1;entryY=0.127;entryDx=0;entryDy=0;entryPerimeter=0;startArrow=classic;startFill=1;" parent="1" source="UPV8nuoFZoHK5YnzN6FV-12" target="UPV8nuoFZoHK5YnzN6FV-8" edge="1">
          <mxGeometry relative="1" as="geometry" />
        </mxCell>
        <mxCell id="UPV8nuoFZoHK5YnzN6FV-18" style="edgeStyle=orthogonalEdgeStyle;rounded=0;orthogonalLoop=1;jettySize=auto;html=1;exitX=0;exitY=0.5;exitDx=0;exitDy=0;entryX=1;entryY=0.377;entryDx=0;entryDy=0;entryPerimeter=0;startArrow=classic;startFill=1;" parent="1" source="UPV8nuoFZoHK5YnzN6FV-13" edge="1">
          <mxGeometry relative="1" as="geometry">
            <mxPoint x="710" y="265.24" as="targetPoint" />
          </mxGeometry>
        </mxCell>
        <mxCell id="UPV8nuoFZoHK5YnzN6FV-19" style="edgeStyle=orthogonalEdgeStyle;rounded=0;orthogonalLoop=1;jettySize=auto;html=1;exitX=0;exitY=0.5;exitDx=0;exitDy=0;entryX=1;entryY=0.627;entryDx=0;entryDy=0;entryPerimeter=0;startArrow=classic;startFill=1;endArrow=none;endFill=0;" parent="1" source="UPV8nuoFZoHK5YnzN6FV-14" edge="1">
          <mxGeometry relative="1" as="geometry">
            <mxPoint x="710" y="235.24" as="targetPoint" />
          </mxGeometry>
        </mxCell>
        <mxCell id="UPV8nuoFZoHK5YnzN6FV-20" style="edgeStyle=orthogonalEdgeStyle;rounded=0;orthogonalLoop=1;jettySize=auto;html=1;exitX=0;exitY=0.5;exitDx=0;exitDy=0;entryX=0.988;entryY=0.873;entryDx=0;entryDy=0;entryPerimeter=0;startArrow=none;startFill=0;" parent="1" source="UPV8nuoFZoHK5YnzN6FV-15" target="UPV8nuoFZoHK5YnzN6FV-8" edge="1">
          <mxGeometry relative="1" as="geometry" />
        </mxCell>
        <mxCell id="UPV8nuoFZoHK5YnzN6FV-33" style="edgeStyle=orthogonalEdgeStyle;rounded=0;orthogonalLoop=1;jettySize=auto;html=1;entryX=0.5;entryY=1;entryDx=0;entryDy=0;startArrow=classic;startFill=1;" parent="1" source="UPV8nuoFZoHK5YnzN6FV-32" target="UPV8nuoFZoHK5YnzN6FV-6" edge="1">
          <mxGeometry relative="1" as="geometry" />
        </mxCell>
        <mxCell id="UPV8nuoFZoHK5YnzN6FV-35" style="edgeStyle=orthogonalEdgeStyle;rounded=0;orthogonalLoop=1;jettySize=auto;html=1;entryX=0;entryY=0.5;entryDx=0;entryDy=0;" parent="1" source="UPV8nuoFZoHK5YnzN6FV-32" target="UPV8nuoFZoHK5YnzN6FV-34" edge="1">
          <mxGeometry relative="1" as="geometry" />
        </mxCell>
        <mxCell id="UPV8nuoFZoHK5YnzN6FV-32" value="&lt;div&gt;Decode&lt;/div&gt;&lt;div&gt;Stage&lt;br&gt;&lt;/div&gt;" style="rounded=0;whiteSpace=wrap;html=1;" parent="1" vertex="1">
          <mxGeometry x="110" y="660" width="120" height="60" as="geometry" />
        </mxCell>
        <mxCell id="UPV8nuoFZoHK5YnzN6FV-37" style="edgeStyle=orthogonalEdgeStyle;rounded=0;orthogonalLoop=1;jettySize=auto;html=1;entryX=0;entryY=0.5;entryDx=0;entryDy=0;" parent="1" source="UPV8nuoFZoHK5YnzN6FV-34" target="UPV8nuoFZoHK5YnzN6FV-36" edge="1">
          <mxGeometry relative="1" as="geometry" />
        </mxCell>
        <mxCell id="UPV8nuoFZoHK5YnzN6FV-34" value="&lt;div&gt;RegSelect&lt;/div&gt;&lt;div&gt;Stage&lt;/div&gt;" style="rounded=0;whiteSpace=wrap;html=1;" parent="1" vertex="1">
          <mxGeometry x="270" y="660" width="120" height="60" as="geometry" />
        </mxCell>
        <mxCell id="UPV8nuoFZoHK5YnzN6FV-41" style="edgeStyle=orthogonalEdgeStyle;rounded=0;orthogonalLoop=1;jettySize=auto;html=1;" parent="1" source="UPV8nuoFZoHK5YnzN6FV-36" target="UPV8nuoFZoHK5YnzN6FV-38" edge="1">
          <mxGeometry relative="1" as="geometry" />
        </mxCell>
        <mxCell id="UPV8nuoFZoHK5YnzN6FV-50" style="edgeStyle=orthogonalEdgeStyle;rounded=0;orthogonalLoop=1;jettySize=auto;html=1;entryX=0.5;entryY=0;entryDx=0;entryDy=0;curved=1;exitX=0.5;exitY=0;exitDx=0;exitDy=0;" parent="1" source="UPV8nuoFZoHK5YnzN6FV-36" target="UPV8nuoFZoHK5YnzN6FV-34" edge="1">
          <mxGeometry relative="1" as="geometry" />
        </mxCell>
        <mxCell id="UPV8nuoFZoHK5YnzN6FV-57" value="Control Hazard" style="edgeStyle=orthogonalEdgeStyle;rounded=0;orthogonalLoop=1;jettySize=auto;html=1;" parent="1" source="UPV8nuoFZoHK5YnzN6FV-36" edge="1">
          <mxGeometry relative="1" as="geometry">
            <mxPoint x="200" y="520" as="targetPoint" />
            <Array as="points">
              <mxPoint x="490" y="580" />
              <mxPoint x="200" y="580" />
              <mxPoint x="200" y="520" />
            </Array>
          </mxGeometry>
        </mxCell>
        <mxCell id="UPV8nuoFZoHK5YnzN6FV-36" value="&lt;div&gt;Execute&lt;/div&gt;Stage" style="rounded=0;whiteSpace=wrap;html=1;" parent="1" vertex="1">
          <mxGeometry x="430" y="660" width="120" height="60" as="geometry" />
        </mxCell>
        <mxCell id="UPV8nuoFZoHK5YnzN6FV-42" style="edgeStyle=orthogonalEdgeStyle;rounded=0;orthogonalLoop=1;jettySize=auto;html=1;entryX=0;entryY=0.5;entryDx=0;entryDy=0;" parent="1" source="UPV8nuoFZoHK5YnzN6FV-38" target="UPV8nuoFZoHK5YnzN6FV-39" edge="1">
          <mxGeometry relative="1" as="geometry" />
        </mxCell>
        <mxCell id="UPV8nuoFZoHK5YnzN6FV-44" value="L/S, Flush" style="edgeStyle=orthogonalEdgeStyle;rounded=0;orthogonalLoop=1;jettySize=auto;html=1;entryX=0.5;entryY=1;entryDx=0;entryDy=0;startArrow=classic;startFill=1;" parent="1" source="UPV8nuoFZoHK5YnzN6FV-38" target="lf7T05zvWJREEMvBu5PD-1" edge="1">
          <mxGeometry x="0.7143" relative="1" as="geometry">
            <mxPoint x="650" y="520" as="targetPoint" />
            <mxPoint as="offset" />
            <Array as="points">
              <mxPoint x="650" y="540" />
              <mxPoint x="650" y="540" />
            </Array>
          </mxGeometry>
        </mxCell>
        <mxCell id="UPV8nuoFZoHK5YnzN6FV-38" value="&lt;div&gt;Memory&lt;/div&gt;Stage" style="rounded=0;whiteSpace=wrap;html=1;" parent="1" vertex="1">
          <mxGeometry x="590" y="660" width="120" height="60" as="geometry" />
        </mxCell>
        <mxCell id="UPV8nuoFZoHK5YnzN6FV-43" style="edgeStyle=orthogonalEdgeStyle;rounded=0;orthogonalLoop=1;jettySize=auto;html=1;entryX=0;entryY=0.5;entryDx=0;entryDy=0;" parent="1" source="UPV8nuoFZoHK5YnzN6FV-39" target="UPV8nuoFZoHK5YnzN6FV-40" edge="1">
          <mxGeometry relative="1" as="geometry" />
        </mxCell>
        <mxCell id="UPV8nuoFZoHK5YnzN6FV-53" style="edgeStyle=orthogonalEdgeStyle;rounded=0;orthogonalLoop=1;jettySize=auto;html=1;exitX=0.5;exitY=0;exitDx=0;exitDy=0;entryX=0.5;entryY=0;entryDx=0;entryDy=0;curved=1;" parent="1" source="UPV8nuoFZoHK5YnzN6FV-39" target="UPV8nuoFZoHK5YnzN6FV-34" edge="1">
          <mxGeometry relative="1" as="geometry">
            <Array as="points">
              <mxPoint x="810" y="620" />
              <mxPoint x="330" y="620" />
            </Array>
          </mxGeometry>
        </mxCell>
        <mxCell id="UPV8nuoFZoHK5YnzN6FV-58" style="edgeStyle=orthogonalEdgeStyle;rounded=0;orthogonalLoop=1;jettySize=auto;html=1;" parent="1" source="UPV8nuoFZoHK5YnzN6FV-39" edge="1">
          <mxGeometry relative="1" as="geometry">
            <mxPoint x="490" y="580" as="targetPoint" />
            <Array as="points">
              <mxPoint x="810" y="580" />
            </Array>
          </mxGeometry>
        </mxCell>
        <mxCell id="UPV8nuoFZoHK5YnzN6FV-76" value="Control Hazard" style="edgeLabel;html=1;align=center;verticalAlign=middle;resizable=0;points=[];" parent="UPV8nuoFZoHK5YnzN6FV-58" vertex="1" connectable="0">
          <mxGeometry x="0.5364" relative="1" as="geometry">
            <mxPoint as="offset" />
          </mxGeometry>
        </mxCell>
        <mxCell id="UPV8nuoFZoHK5YnzN6FV-39" value="&lt;div&gt;CSR&lt;/div&gt;Stage" style="rounded=0;whiteSpace=wrap;html=1;" parent="1" vertex="1">
          <mxGeometry x="750" y="660" width="120" height="60" as="geometry" />
        </mxCell>
        <mxCell id="UPV8nuoFZoHK5YnzN6FV-59" style="edgeStyle=orthogonalEdgeStyle;rounded=0;orthogonalLoop=1;jettySize=auto;html=1;entryX=0;entryY=0.75;entryDx=0;entryDy=0;exitX=0.5;exitY=0;exitDx=0;exitDy=0;" parent="1" source="UPV8nuoFZoHK5YnzN6FV-39" target="UPV8nuoFZoHK5YnzN6FV-9" edge="1">
          <mxGeometry relative="1" as="geometry">
            <Array as="points">
              <mxPoint x="810" y="550" />
              <mxPoint x="470" y="550" />
              <mxPoint x="470" y="75" />
            </Array>
          </mxGeometry>
        </mxCell>
        <mxCell id="UPV8nuoFZoHK5YnzN6FV-77" value="Flush Cache" style="edgeLabel;html=1;align=center;verticalAlign=middle;resizable=0;points=[];" parent="UPV8nuoFZoHK5YnzN6FV-59" vertex="1" connectable="0">
          <mxGeometry x="-0.5515" y="-1" relative="1" as="geometry">
            <mxPoint x="-216" y="-159" as="offset" />
          </mxGeometry>
        </mxCell>
        <mxCell id="UPV8nuoFZoHK5YnzN6FV-55" style="edgeStyle=orthogonalEdgeStyle;rounded=0;orthogonalLoop=1;jettySize=auto;html=1;entryX=0.5;entryY=0;entryDx=0;entryDy=0;curved=1;exitX=0.5;exitY=0;exitDx=0;exitDy=0;" parent="1" source="UPV8nuoFZoHK5YnzN6FV-40" target="UPV8nuoFZoHK5YnzN6FV-34" edge="1">
          <mxGeometry relative="1" as="geometry">
            <Array as="points">
              <mxPoint x="970" y="610" />
              <mxPoint x="330" y="610" />
            </Array>
          </mxGeometry>
        </mxCell>
        <mxCell id="stZ-vPFSp5Zs5-Oamw_T-25" value="Write" style="edgeStyle=orthogonalEdgeStyle;rounded=0;orthogonalLoop=1;jettySize=auto;html=1;entryX=0.5;entryY=0;entryDx=0;entryDy=0;curved=1;exitX=0.543;exitY=1.017;exitDx=0;exitDy=0;exitPerimeter=0;" edge="1" parent="1" source="UPV8nuoFZoHK5YnzN6FV-40" target="stZ-vPFSp5Zs5-Oamw_T-24">
          <mxGeometry x="0.107" y="-5" relative="1" as="geometry">
            <mxPoint as="offset" />
          </mxGeometry>
        </mxCell>
        <mxCell id="UPV8nuoFZoHK5YnzN6FV-40" value="&lt;div&gt;Writeback&lt;/div&gt;&lt;div&gt;Stage&lt;br&gt;&lt;/div&gt;" style="rounded=0;whiteSpace=wrap;html=1;" parent="1" vertex="1">
          <mxGeometry x="910" y="660" width="120" height="60" as="geometry" />
        </mxCell>
        <mxCell id="UPV8nuoFZoHK5YnzN6FV-48" style="edgeStyle=orthogonalEdgeStyle;rounded=0;orthogonalLoop=1;jettySize=auto;html=1;entryX=0.25;entryY=1;entryDx=0;entryDy=0;startArrow=classic;startFill=1;" parent="1" source="UPV8nuoFZoHK5YnzN6FV-46" target="UPV8nuoFZoHK5YnzN6FV-36" edge="1">
          <mxGeometry relative="1" as="geometry" />
        </mxCell>
        <mxCell id="UPV8nuoFZoHK5YnzN6FV-46" value="ALU" style="rounded=0;whiteSpace=wrap;html=1;" parent="1" vertex="1">
          <mxGeometry x="430" y="750" width="60" height="40" as="geometry" />
        </mxCell>
        <mxCell id="UPV8nuoFZoHK5YnzN6FV-49" style="edgeStyle=orthogonalEdgeStyle;rounded=0;orthogonalLoop=1;jettySize=auto;html=1;entryX=0.75;entryY=1;entryDx=0;entryDy=0;startArrow=classic;startFill=1;" parent="1" source="UPV8nuoFZoHK5YnzN6FV-47" target="UPV8nuoFZoHK5YnzN6FV-36" edge="1">
          <mxGeometry relative="1" as="geometry" />
        </mxCell>
        <mxCell id="UPV8nuoFZoHK5YnzN6FV-47" value="MulDiv" style="rounded=0;whiteSpace=wrap;html=1;" parent="1" vertex="1">
          <mxGeometry x="490" y="750" width="60" height="40" as="geometry" />
        </mxCell>
        <mxCell id="UPV8nuoFZoHK5YnzN6FV-51" style="edgeStyle=orthogonalEdgeStyle;rounded=0;orthogonalLoop=1;jettySize=auto;html=1;entryX=0.5;entryY=0;entryDx=0;entryDy=0;curved=1;exitX=0.5;exitY=0;exitDx=0;exitDy=0;" parent="1" source="UPV8nuoFZoHK5YnzN6FV-38" target="UPV8nuoFZoHK5YnzN6FV-34" edge="1">
          <mxGeometry relative="1" as="geometry">
            <mxPoint x="500" y="670" as="sourcePoint" />
            <mxPoint x="340" y="670" as="targetPoint" />
            <Array as="points">
              <mxPoint x="650" y="630" />
              <mxPoint x="330" y="630" />
            </Array>
          </mxGeometry>
        </mxCell>
        <mxCell id="UPV8nuoFZoHK5YnzN6FV-74" value="&lt;div&gt;Forwarding&lt;/div&gt;" style="edgeLabel;html=1;align=center;verticalAlign=middle;resizable=0;points=[];" parent="UPV8nuoFZoHK5YnzN6FV-51" vertex="1" connectable="0">
          <mxGeometry x="0.7514" y="9" relative="1" as="geometry">
            <mxPoint as="offset" />
          </mxGeometry>
        </mxCell>
        <mxCell id="UPV8nuoFZoHK5YnzN6FV-63" style="edgeStyle=orthogonalEdgeStyle;rounded=0;orthogonalLoop=1;jettySize=auto;html=1;entryX=0.5;entryY=1;entryDx=0;entryDy=0;startArrow=classic;startFill=1;" parent="1" source="UPV8nuoFZoHK5YnzN6FV-62" target="UPV8nuoFZoHK5YnzN6FV-32" edge="1">
          <mxGeometry relative="1" as="geometry" />
        </mxCell>
        <mxCell id="UPV8nuoFZoHK5YnzN6FV-62" value="Decoder" style="rounded=0;whiteSpace=wrap;html=1;" parent="1" vertex="1">
          <mxGeometry x="110" y="750" width="120" height="40" as="geometry" />
        </mxCell>
        <mxCell id="1X-20gRu9NT8Gj2UxZxP-1" value="&lt;div&gt;L1 TLB&lt;/div&gt;&lt;div&gt;(32 entry)&lt;br&gt;&lt;/div&gt;" style="rounded=0;whiteSpace=wrap;html=1;" parent="1" vertex="1">
          <mxGeometry x="50" y="355" width="60" height="30" as="geometry" />
        </mxCell>
        <mxCell id="gQj1p86dsXMBCgd8YVDt-3" value="&lt;div&gt;L2 TLB&lt;/div&gt;" style="rounded=0;whiteSpace=wrap;html=1;" parent="1" vertex="1">
          <mxGeometry x="50" y="385" width="60" height="30" as="geometry" />
        </mxCell>
        <mxCell id="gQj1p86dsXMBCgd8YVDt-4" value="&lt;div&gt;L1 TLB&lt;/div&gt;&lt;div&gt;(32 entry)&lt;br&gt;&lt;/div&gt;" style="rounded=0;whiteSpace=wrap;html=1;" parent="1" vertex="1">
          <mxGeometry x="530" y="340" width="60" height="30" as="geometry" />
        </mxCell>
        <mxCell id="gQj1p86dsXMBCgd8YVDt-5" value="&lt;div&gt;L2 TLB&lt;/div&gt;" style="rounded=0;whiteSpace=wrap;html=1;" parent="1" vertex="1">
          <mxGeometry x="530" y="370" width="60" height="30" as="geometry" />
        </mxCell>
        <mxCell id="lf7T05zvWJREEMvBu5PD-1" value="&lt;div&gt;L0 D$&lt;br&gt;&lt;/div&gt;&lt;div&gt;(32 entry)&lt;br&gt;&lt;/div&gt;" style="rounded=0;whiteSpace=wrap;html=1;" parent="1" vertex="1">
          <mxGeometry x="590" y="480" width="120" height="40" as="geometry" />
        </mxCell>
        <mxCell id="lf7T05zvWJREEMvBu5PD-6" style="edgeStyle=orthogonalEdgeStyle;rounded=0;orthogonalLoop=1;jettySize=auto;html=1;entryX=0.25;entryY=1;entryDx=0;entryDy=0;" parent="1" source="lf7T05zvWJREEMvBu5PD-2" target="UPV8nuoFZoHK5YnzN6FV-4" edge="1">
          <mxGeometry relative="1" as="geometry" />
        </mxCell>
        <mxCell id="lf7T05zvWJREEMvBu5PD-2" value="Request Queue" style="rounded=0;whiteSpace=wrap;html=1;" parent="1" vertex="1">
          <mxGeometry x="590" y="420" width="60" height="40" as="geometry" />
        </mxCell>
        <mxCell id="lf7T05zvWJREEMvBu5PD-9" value="" style="edgeStyle=orthogonalEdgeStyle;rounded=0;orthogonalLoop=1;jettySize=auto;html=1;entryX=0.75;entryY=0;entryDx=0;entryDy=0;" parent="1" target="lf7T05zvWJREEMvBu5PD-1" edge="1">
          <mxGeometry relative="1" as="geometry">
            <mxPoint x="680" y="400" as="sourcePoint" />
          </mxGeometry>
        </mxCell>
        <mxCell id="lf7T05zvWJREEMvBu5PD-4" value="" style="endArrow=classic;html=1;rounded=0;exitX=0.25;exitY=0;exitDx=0;exitDy=0;entryX=0.5;entryY=1;entryDx=0;entryDy=0;" parent="1" source="lf7T05zvWJREEMvBu5PD-1" target="lf7T05zvWJREEMvBu5PD-2" edge="1">
          <mxGeometry width="50" height="50" relative="1" as="geometry">
            <mxPoint x="750" y="440" as="sourcePoint" />
            <mxPoint x="800" y="390" as="targetPoint" />
          </mxGeometry>
        </mxCell>
        <mxCell id="lf7T05zvWJREEMvBu5PD-10" value="Flush TLB" style="endArrow=classic;html=1;rounded=0;exitX=0.5;exitY=0;exitDx=0;exitDy=0;entryX=1;entryY=0.75;entryDx=0;entryDy=0;" parent="1" source="UPV8nuoFZoHK5YnzN6FV-39" target="UPV8nuoFZoHK5YnzN6FV-4" edge="1">
          <mxGeometry width="50" height="50" relative="1" as="geometry">
            <mxPoint x="800" y="380" as="sourcePoint" />
            <mxPoint x="810" y="550" as="targetPoint" />
            <Array as="points">
              <mxPoint x="810" y="385" />
            </Array>
          </mxGeometry>
        </mxCell>
        <mxCell id="stZ-vPFSp5Zs5-Oamw_T-14" style="edgeStyle=orthogonalEdgeStyle;rounded=0;orthogonalLoop=1;jettySize=auto;html=1;entryX=1;entryY=0.5;entryDx=0;entryDy=0;" edge="1" parent="1" source="stZ-vPFSp5Zs5-Oamw_T-3" target="UPV8nuoFZoHK5YnzN6FV-15">
          <mxGeometry relative="1" as="geometry" />
        </mxCell>
        <mxCell id="stZ-vPFSp5Zs5-Oamw_T-3" value="UART RX" style="rounded=0;whiteSpace=wrap;html=1;" vertex="1" parent="1">
          <mxGeometry x="970" y="280" width="100" height="30" as="geometry" />
        </mxCell>
        <mxCell id="stZ-vPFSp5Zs5-Oamw_T-5" value="UART TX" style="rounded=0;whiteSpace=wrap;html=1;" vertex="1" parent="1">
          <mxGeometry x="970" y="220" width="100" height="30" as="geometry" />
        </mxCell>
        <mxCell id="stZ-vPFSp5Zs5-Oamw_T-17" value="MTIP" style="endArrow=classic;html=1;rounded=0;exitX=0.799;exitY=0.99;exitDx=0;exitDy=0;exitPerimeter=0;entryX=0.886;entryY=0.005;entryDx=0;entryDy=0;edgeStyle=orthogonalEdgeStyle;entryPerimeter=0;" edge="1" parent="1" source="UPV8nuoFZoHK5YnzN6FV-13" target="UPV8nuoFZoHK5YnzN6FV-39">
          <mxGeometry x="-0.2743" width="50" height="50" relative="1" as="geometry">
            <mxPoint x="940" y="410" as="sourcePoint" />
            <mxPoint x="990" y="360" as="targetPoint" />
            <mxPoint as="offset" />
          </mxGeometry>
        </mxCell>
        <mxCell id="stZ-vPFSp5Zs5-Oamw_T-19" value="Flush TLB" style="endArrow=classic;html=1;rounded=0;exitX=0.5;exitY=0;exitDx=0;exitDy=0;edgeStyle=orthogonalEdgeStyle;entryX=1;entryY=0.75;entryDx=0;entryDy=0;" edge="1" parent="1" source="UPV8nuoFZoHK5YnzN6FV-39" target="UPV8nuoFZoHK5YnzN6FV-3">
          <mxGeometry x="0.7381" width="50" height="50" relative="1" as="geometry">
            <mxPoint x="510" y="440" as="sourcePoint" />
            <mxPoint x="470" y="400" as="targetPoint" />
            <Array as="points">
              <mxPoint x="810" y="560" />
              <mxPoint x="440" y="560" />
              <mxPoint x="440" y="400" />
            </Array>
            <mxPoint as="offset" />
          </mxGeometry>
        </mxCell>
        <mxCell id="stZ-vPFSp5Zs5-Oamw_T-23" value="" style="endArrow=classic;html=1;rounded=0;entryX=1;entryY=0.5;entryDx=0;entryDy=0;" edge="1" parent="1" target="UPV8nuoFZoHK5YnzN6FV-11">
          <mxGeometry width="50" height="50" relative="1" as="geometry">
            <mxPoint x="470" y="280" as="sourcePoint" />
            <mxPoint x="500" y="220" as="targetPoint" />
          </mxGeometry>
        </mxCell>
        <mxCell id="stZ-vPFSp5Zs5-Oamw_T-26" value="Read" style="edgeStyle=orthogonalEdgeStyle;rounded=0;orthogonalLoop=1;jettySize=auto;html=1;entryX=0.5;entryY=1;entryDx=0;entryDy=0;curved=1;" edge="1" parent="1" source="stZ-vPFSp5Zs5-Oamw_T-24" target="UPV8nuoFZoHK5YnzN6FV-34">
          <mxGeometry relative="1" as="geometry">
            <Array as="points">
              <mxPoint x="770" y="810" />
              <mxPoint x="330" y="810" />
            </Array>
          </mxGeometry>
        </mxCell>
        <mxCell id="stZ-vPFSp5Zs5-Oamw_T-24" value="Registers" style="rounded=0;whiteSpace=wrap;html=1;" vertex="1" parent="1">
          <mxGeometry x="690" y="760" width="160" height="30" as="geometry" />
        </mxCell>
      </root>
    </mxGraphModel>
  </diagram>
</mxfile>
